<svg xmlns="http://www.w3.org/2000/svg" xmlns:xlink="http://www.w3.org/1999/xlink" width="30px" height="29px" viewBox="0 0 30 29" version="1.1">
    <!-- Generator: Sketch 3.8.3 (29802) - http://www.bohemiancoding.com/sketch -->
    <title>INSTAGRAM</title>
    <desc>Created with Sketch.</desc>
    <defs>
        <polygon id="path-1" points="-6.27129839e-05 0.498143109 29.0549956 0.498143109 29.0549956 28.94731 -6.27129839e-05 28.94731"/>
    </defs>
    <g id="Symbols" stroke="none" stroke-width="1" fill="none" fill-rule="evenodd">
        <g id="Footer-Mobile" transform="translate(-193.000000, -216.000000)">
            <g id="social-copy" transform="translate(48.000000, 192.000000)">
                <g id="Social" transform="translate(0.000000, 24.000000)">
                    <g id="INSTAGRAM" transform="translate(145.842252, 0.000000)">
                        <polygon id="Fill-1" fill="#BDF0D6" points="20.5247292 11.6093081 20.5247292 9.32923867 20.5247292 8.98841247 20.1760614 8.98956782 17.8480698 8.99765522 17.8569192 11.6185509"/>
                        <g id="Group-9">
                            <path d="M14.455727,17.6612838 C15.9884493,17.6612838 17.2362198,16.4406639 17.2362198,14.9398733 C17.2362198,14.3471823 17.0391724,13.798972 16.7093834,13.352432 C16.2043756,12.6673135 15.3831479,12.2173074 14.455727,12.2173074 C13.5277161,12.2173074 12.7076684,12.6673135 12.2020706,13.352432 C11.8722817,13.798972 11.6758242,14.3471823 11.6758242,14.9398733 C11.6758242,16.4406639 12.9230047,17.6612838 14.455727,17.6612838" id="Fill-2" fill="#BDF0D6"/>
                            <g id="Group-6">
                                <mask id="mask-2" fill="white">
                                    <use xlink:href="#path-1"/>
                                </mask>
                                <g id="Clip-5"/>
                                <path d="M22.3528457,13.3524897 L22.3528457,19.6837696 C22.3528457,21.3318664 20.983543,22.6720643 19.3003802,22.6720643 L9.61024781,22.6720643 C7.92767504,22.6720643 6.55896227,21.3318664 6.55896227,19.6837696 L6.55896227,13.3524897 L6.55896227,10.1955149 C6.55896227,8.54799571 7.92767504,7.20722012 9.61024781,7.20722012 L19.3003802,7.20722012 C20.983543,7.20722012 22.3528457,8.54799571 22.3528457,10.1955149 L22.3528457,13.3524897 Z M14.5275844,0.498143109 C6.50468573,0.498143109 -0.000239701704,6.86581625 -0.000239701704,14.7221489 C-0.000239701704,22.5784815 6.50468573,28.94731 14.5275844,28.94731 C22.5504831,28.94731 29.0548186,22.5784815 29.0548186,14.7221489 C29.0548186,6.86581625 22.5504831,0.498143109 14.5275844,0.498143109 L14.5275844,0.498143109 Z" id="Fill-4" fill="#BDF0D6" mask="url(#mask-2)"/>
                            </g>
                            <path d="M18.7744288,14.9399311 C18.7744288,17.2708356 16.8375822,19.1684866 14.455904,19.1684866 C12.0742258,19.1684866 10.1373792,17.2708356 10.1373792,14.9399311 C10.1373792,14.3778567 10.2518319,13.8435105 10.454779,13.3524897 L8.09728923,13.3524897 L8.09728923,19.6837696 C8.09728923,20.5011748 8.77633596,21.165497 9.61054279,21.165497 L19.3006752,21.165497 C20.135472,21.165497 20.8139288,20.5011748 20.8139288,19.6837696 L20.8139288,13.3524897 L18.4552591,13.3524897 C18.6593861,13.8435105 18.7744288,14.3778567 18.7744288,14.9399311" id="Fill-7" fill="#BDF0D6"/>
                        </g>
                    </g>
                </g>
            </g>
        </g>
    </g>
</svg>