<svg xmlns="http://www.w3.org/2000/svg" xmlns:xlink="http://www.w3.org/1999/xlink" width="29px" height="28px" viewBox="0 0 29 28" version="1.1">
        <!-- Generator: Sketch 3.8.3 (29802) - http://www.bohemiancoding.com/sketch -->
        <title>TWITTER</title>
        <desc>Created with Sketch.</desc>
        <defs>
            <polyline id="path-1" points="0 0.423600852 28.3890878 0.423600852 28.3890878 28.1649503 0 28.1649503" />
        </defs>
        <g id="Symbols" stroke="none" stroke-width="1" fill="none" fill-rule="evenodd">
            <g id="Footer-Mobile" transform="translate(-48.000000, -217.000000)">
                <g id="social-copy" transform="translate(48.000000, 192.000000)">
                    <g id="Social" transform="translate(0.000000, 24.000000)">
                        <g id="TWITTER" transform="translate(0.000000, 0.782360)">
                            <mask id="mask-2" fill="white">
                                <use xlink:href="#path-1"/>
                            </mask>
                            <g id="Clip-2"/>
                            <path d="M21.3461752,11.4981156 C21.3530927,11.6485165 21.3559749,11.7989173 21.3559749,11.9504447 C21.3559749,16.5700599 17.7577641,21.8966153 11.1781457,21.8966153 C9.15825931,21.8966153 7.27729778,21.3181072 5.69436172,20.3261377 C5.97394074,20.3582457 6.25870782,20.3745814 6.54751007,20.3745814 C8.22383129,20.3745814 9.76641574,19.8157888 10.9902225,18.8784592 C9.4251564,18.849731 8.10392936,17.8391725 7.64910905,16.4506405 C7.86700775,16.4917613 8.09067097,16.5131667 8.32182806,16.5131667 C8.64867611,16.5131667 8.96457158,16.4709193 9.26490285,16.3909308 C7.62778035,16.0692871 6.3947504,14.6565332 6.3947504,12.9638196 C6.3947504,12.9480473 6.3947504,12.9339648 6.39532685,12.919319 C6.87724038,13.1806898 7.42890455,13.3384135 8.01515581,13.3570024 C7.05536392,12.728924 6.42357298,11.6597824 6.42357298,10.4469997 C6.42357298,9.80596542 6.59996716,9.20548868 6.90836876,8.68950679 C8.67231062,10.8046946 11.3084237,12.1954798 14.281761,12.3413742 C14.2206572,12.0856365 14.1895288,11.8186328 14.1895288,11.5448695 C14.1895288,9.61444376 15.7909113,8.04959912 17.7664109,8.04959912 C18.795377,8.04959912 19.7251934,8.47432657 20.3771601,9.15310187 C21.1928391,8.99706805 21.9583668,8.70527916 22.6495323,8.30477357 C22.3820587,9.12155713 21.8148304,9.80652872 21.0758194,10.2391424 C21.8004191,10.1540842 22.4892787,9.96594234 23.1308693,9.68823593 C22.6518381,10.3889799 22.0448346,11.005229 21.3461752,11.4981156 M14.1952933,0.423657182 C6.35555169,0.423657182 0.000172935477,6.63515532 0.000172935477,14.2948952 C0.000172935477,21.9557617 6.35555169,28.1650066 14.1952933,28.1650066 C22.0344584,28.1650066 28.3892607,21.9557617 28.3892607,14.2948952 C28.3892607,6.63515532 22.0344584,0.423657182 14.1952933,0.423657182" id="Fill-1" fill="#BDF0D6" mask="url(#mask-2)"/>
                        </g>
                    </g>
                </g>
            </g>
        </g>
    </svg>