<svg xmlns="http://www.w3.org/2000/svg" xmlns:xlink="http://www.w3.org/1999/xlink" width="30px" height="29px" viewBox="0 0 30 29" version="1.1">
    <!-- Generator: Sketch 41.2 (35397) - http://www.bohemiancoding.com/sketch -->
    <title>YOUTUBE</title>
    <desc>Created with Sketch.</desc>
    <defs/>
    <g id="Symbols" stroke="none" stroke-width="1" fill="none" fill-rule="evenodd">
        <g id="FOOTER" transform="translate(-1039.000000, -69.000000)" fill="#BDF0D6">
            <g id="Social" transform="translate(844.000000, 69.000000)">
                <g id="YOUTUBE" transform="translate(195.000000, 0.000000)">
                    <polygon id="Fill-1" points="7.54077049 15.584051 8.67965116 15.584051 8.67965116 21.6684438 9.75648449 21.6684438 9.75648449 15.584051 10.9151909 15.584051 10.9151909 14.5884758 7.54077049 14.5884758"/>
                    <g id="Group-12" transform="translate(0.000000, 0.072148)">
                        <path d="M17.1192914,20.0877054 C17.1192914,20.5637397 16.9738264,20.7986751 16.6847955,20.7986751 C16.5199605,20.7986751 16.3524669,20.7236263 16.1845935,20.5637397 L16.1845935,17.3489672 C16.3524669,17.1916185 16.5199605,17.1165697 16.6847955,17.1165697 C16.972687,17.1165697 17.1192914,17.3602064 17.1192914,17.8362407 L17.1192914,20.0877054 Z M17.2203193,16.2555023 C16.8522891,16.2555023 16.5081866,16.4480188 16.1845935,16.8276136 L16.1845935,14.5163274 L15.1834298,14.5163274 L15.1834298,21.5962955 L16.1845935,21.5962955 L16.1845935,21.0847308 C16.5199605,21.4784652 16.8640631,21.6684438 17.2203193,21.6684438 C17.6179743,21.6684438 17.8864958,21.467226 18.019807,21.0749418 C18.0866526,20.8512456 18.1208349,20.4999301 18.1208349,20.0126566 L18.1208349,17.9123772 C18.1208349,17.4127768 18.0866526,17.0643618 18.019807,16.8519047 C17.8864958,16.4567201 17.6179743,16.2555023 17.2203193,16.2555023 L17.2203193,16.2555023 Z" id="Fill-2"/>
                        <path d="M13.3155531,20.3512826 C13.0929878,20.6514779 12.8837158,20.7986751 12.6820398,20.7986751 C12.5483487,20.7986751 12.4727677,20.7236263 12.4473208,20.5749789 C12.4385853,20.5437992 12.4385853,20.4277817 12.4385853,20.2040854 L12.4385853,16.3207621 L11.4370418,16.3207621 L11.4370418,20.4915913 C11.4370418,20.863935 11.4712242,21.1159105 11.5262958,21.2761597 C11.6269439,21.5422748 11.8495091,21.6684438 12.171583,21.6684438 C12.5396132,21.6684438 12.9178981,21.4559868 13.3155531,21.0198335 L13.3155531,21.5962955 L14.318236,21.5962955 L14.318236,16.3207621 L13.3155531,16.3207621 L13.3155531,20.3512826 Z" id="Fill-4"/>
                        <path d="M14.1758094,11.4473019 C14.5009217,11.4473019 14.6581607,11.2011273 14.6581607,10.7066027 L14.6581607,8.46492699 C14.6581607,7.97221517 14.5009217,7.72567797 14.1758094,7.72567797 C13.8495577,7.72567797 13.6923187,7.97221517 13.6923187,8.46492699 L13.6923187,10.7066027 C13.6923187,11.2011273 13.8495577,11.4473019 14.1758094,11.4473019" id="Fill-6"/>
                        <path d="M22.8444589,22.060728 C22.6412637,22.9018549 21.9219147,23.522186 21.0540622,23.6157251 C18.9989421,23.833983 16.9206539,23.8350707 14.8495819,23.833983 C12.7796494,23.8350707 10.699842,23.833983 8.64510164,23.6157251 C7.7772492,23.522186 7.05752037,22.9018549 6.85432516,22.060728 C6.56643363,20.863935 6.56643363,19.5554751 6.56643363,18.3231517 C6.56643363,17.0897406 6.56947206,15.7823684 6.85888281,14.5844877 C7.06055881,13.7429982 7.78142705,13.1230297 8.64814008,13.0294906 C10.7028804,12.8112327 12.7826879,12.8097824 14.8522406,12.8112327 C16.9236923,12.8097824 19.0019805,12.8112327 21.0567209,13.0294906 C21.9249531,13.1230297 22.6458213,13.7429982 22.8490166,14.5844877 C23.1369081,15.7823684 23.1338697,17.0897406 23.1338697,18.3231517 C23.1338697,19.5554751 23.1338697,20.863935 22.8444589,22.060728 L22.8444589,22.060728 Z M9.9744161,5.09860666 L10.7708654,7.90695532 L11.5365505,5.09860666 L12.6714052,5.09860666 L11.3215814,9.35427366 L11.3215814,12.2518108 L10.19964,12.2518108 L10.19964,9.35427366 C10.0974726,8.84162132 9.87338821,8.08968289 9.51295408,7.09120726 C9.27709572,6.42700706 9.03060284,5.76135664 8.79322526,5.09860666 L9.9744161,5.09860666 Z M12.6805205,8.65889376 C12.6805205,8.08968289 12.7811686,7.67310754 12.9965176,7.40264174 C13.276813,7.03863683 13.6714295,6.85590926 14.1758094,6.85590926 C14.6817085,6.85590926 15.076325,7.03863683 15.355481,7.40264174 C15.5674117,7.67165732 15.6699589,8.08968289 15.6699589,8.65889376 L15.6699589,10.5253253 C15.6699589,11.0919983 15.5674117,11.5125618 15.355481,11.7790395 C15.076325,12.1426818 14.6817085,12.3254094 14.1758094,12.3254094 C13.6714295,12.3254094 13.276813,12.1426818 12.9965176,11.7790395 C12.7811686,11.5125618 12.6805205,11.0919983 12.6805205,10.5253253 L12.6805205,8.65889376 Z M16.5021097,6.92116911 L17.5108695,6.92116911 L17.5108695,10.8454611 C17.5108695,11.0720578 17.5108695,11.1898881 17.5230232,11.2207052 C17.5450519,11.3711654 17.6251905,11.4473019 17.7604008,11.4473019 C17.963596,11.4473019 18.1755267,11.2972043 18.3996112,10.9955588 L18.3996112,6.92116911 L19.4114094,6.92116911 L19.4114094,12.2518108 L18.3996112,12.2518108 L18.3996112,11.6699105 C17.9962592,12.1115021 17.6134166,12.3254094 17.2438672,12.3254094 C16.9176154,12.3254094 16.693531,12.1981527 16.5913637,11.9291371 C16.5362921,11.7674377 16.5021097,11.5125618 16.5021097,11.1358674 L16.5021097,6.92116911 Z M14.8511012,0.29040631 C6.64809152,0.29040631 0,6.63656367 0,14.46702 C0,22.2956635 6.64809152,28.6418208 14.8511012,28.6418208 C23.0522118,28.6418208 29.7003033,22.2956635 29.7003033,14.46702 C29.7003033,6.63656367 23.0522118,0.29040631 14.8511012,0.29040631 L14.8511012,0.29040631 Z" id="Fill-8"/>
                        <path d="M20.899482,18.3358411 L19.8983183,18.3358411 L19.8983183,17.8489301 C19.8983183,17.3602064 20.0658119,17.1165697 20.3996597,17.1165697 C20.7319883,17.1165697 20.899482,17.3602064 20.899482,17.8489301 L20.899482,18.3358411 Z M20.4083952,16.2555023 C19.896799,16.2555023 19.4991441,16.4353294 19.2097334,16.7964339 C18.9978027,17.0643618 18.9013324,17.4762239 18.9013324,18.0399965 L18.9013324,19.8883003 C18.9013324,20.4477222 19.0095766,20.863935 19.2215073,21.1275122 C19.510918,21.4886167 19.9100922,21.6684438 20.4338421,21.6684438 C20.957592,21.6684438 21.3670208,21.4799154 21.6442779,21.0963325 C21.766195,20.9277446 21.8448144,20.7352281 21.878617,20.5242212 C21.8877323,20.4277817 21.8995062,20.2167748 21.8995062,19.9078782 L21.8995062,19.7693824 L20.8789725,19.7693824 C20.8789725,20.151515 20.8656794,20.3639721 20.8565641,20.4165425 C20.7988339,20.6714184 20.6564073,20.7986751 20.4083952,20.7986751 C20.0658119,20.7986751 19.896799,20.5554009 19.896799,20.0681274 L19.896799,19.1320112 L21.8995062,19.1320112 L21.8995062,18.0399965 C21.8995062,17.4762239 21.7999975,17.0643618 21.5895861,16.7964339 C21.31043,16.4353294 20.9116357,16.2555023 20.4083952,16.2555023 L20.4083952,16.2555023 Z" id="Fill-10"/>
                    </g>
                </g>
            </g>
        </g>
    </g>
</svg>